<?xml version="1.0" encoding="utf-8"?>
<!-- Generator: Adobe Illustrator 19.2.1, SVG Export Plug-In . SVG Version: 6.00 Build 0)  -->
<svg version="1.1" id="layer" xmlns="http://www.w3.org/2000/svg" xmlns:xlink="http://www.w3.org/1999/xlink" x="0px" y="0px"
	 viewBox="0 0 652 652" style="enable-background:new 0 0 652 652;" xml:space="preserve">
<style type="text/css">
	.st0{fill:#6EB4DC;}
</style>
<path class="st0" d="M276.2,294.9c0.4,3.4,1,8.7,5.1,10.1c1.9,0.6,3.9,0.9,5.9,0.9c0.5,0,1,0.1,1,0.6c0,0.5-0.3,0.8-1.4,0.8
	c-2.1,0-12.9-0.3-16.4-0.6c-2.2-0.2-2.7-0.5-2.7-1c0-0.5,0.2-0.5,0.7-0.7c0.7-0.3,0.6-1.7,0.4-3.4l-4.5-49.6l-23.6,50
	c-2,4.2-2.3,5-3.1,5c-0.7,0-1.1-0.9-2.9-4.4c-2.5-4.7-10.6-21.1-11.1-22c-0.9-1.7-11.8-25.2-12.9-27.8l-3.9,44.8
	c-0.1,1.5-0.2,2.8-0.2,4.5c0,2.4,1.1,3.1,2.6,3.4c1.1,0.3,2.3,0.4,3.4,0.4c0.6,0,1,0.2,1,0.5c0,0.7-0.5,0.9-1.4,0.9
	c-3.5,0-8.4-0.3-9.1-0.3c-0.8,0-5.4,0.3-8,0.3c-1,0-1.6-0.1-1.6-0.8c0-0.4,0.5-0.6,1-0.6c1,0,1.9-0.1,2.9-0.3c3.1-0.6,3.3-4,3.8-7.9
	l6.9-61.8c0.1-1,0.5-1.9,1-1.9s1,0.4,1.4,1.4l29.1,59.8l27.9-59.7c0.4-0.9,0.8-1.5,1.4-1.5c0.7,0,1,0.8,1.1,2.6L276.2,294.9z
	 M310.5,279.1c-0.5,0-0.8,0.3-1,0.8l-5.7,16.8c-0.8,2-1.2,4.2-1.3,6.4c0,1.9,1.8,2.8,3.4,2.8h0.9c1,0,1.2,0.2,1.2,0.6
	c0,0.6-0.9,0.8-1.7,0.8c-2.3,0-6.1-0.3-7.1-0.3c-1,0-6.3,0.3-10.7,0.3c-1.2,0-1.8-0.2-1.8-0.8c0-0.4,0.5-0.6,1.3-0.6
	c0.8,0,1.5-0.1,2.3-0.2c4.4-0.6,6.3-4.2,8-8.9l21.6-59c1.1-3.1,1.5-3.7,2.1-3.7c0.6,0,1,0.5,2.1,3.4c1.4,3.6,16.4,42.9,22.1,57.3
	c3.4,8.5,6.2,10,8.2,10.6c1.2,0.4,2.4,0.6,3.7,0.6c0.6,0,1,0.1,1,0.6s-0.9,0.8-1.9,0.8c-1.4,0-8.4,0-14.9-0.2
	c-1.8-0.1-2.8-0.1-2.8-0.7c0-0.4,0.3-0.6,0.7-0.7c0.6-0.2,1.1-1,0.6-2.6l-8.8-23.4c-0.1-0.4-0.5-0.6-0.9-0.6L310.5,279.1z
	 M329.7,275.7c0.5,0,0.5-0.3,0.4-0.7l-9-25.7c-0.5-1.4-1-1.4-1.4,0l-8.4,25.7c-0.2,0.5,0,0.7,0.3,0.7H329.7z M372.7,262.9
	c0-14.8,0-17.5-0.2-20.5c-0.2-3.2-1.1-4.9-3.2-5.3c-1-0.2-2-0.4-2.9-0.4c-0.4,0-0.8-0.2-0.8-0.6c0-0.6,0.5-0.8,1.5-0.8
	c3.1,0,9.1,0.3,9.6,0.3c0.5,0,6.5-0.3,9.3-0.3c1,0,1.5,0.2,1.5,0.8c0,0.4-0.4,0.6-0.8,0.6c-0.8,0-1.6,0.1-2.4,0.3
	c-2.6,0.5-3.3,2.1-3.5,5.4c-0.2,3-0.2,5.7-0.2,20.5v16.7c0,9.1,0,16.6,0.5,20.6c0.3,2.8,0.9,4.9,3.7,5.2c1.3,0.2,3.3,0.4,3.9,0.4
	c0.9,0,1.1,0.3,1.1,0.6c0,0.5-0.4,0.8-1.4,0.8c-5.2,0-11.3-0.3-11.8-0.3c-0.5,0-6.5,0.3-9.3,0.3c-1,0-1.5-0.2-1.5-0.8
	c0-0.3,0.2-0.6,1-0.6c0.8,0,1.7-0.1,2.5-0.3c1.9-0.4,2.5-2.6,2.8-5.3c0.5-4,0.5-11.5,0.5-20.6V262.9z M414.5,262.9
	c0-14.8,0-17.5-0.2-20.5c-0.2-3.2-0.7-4.8-3.8-5.4c-1.1-0.2-2.1-0.3-3.2-0.3c-0.7,0-1-0.2-1-0.6c0-0.6,0.5-0.8,1.5-0.8
	c4.3,0,10.3,0.3,10.7,0.3c1.1,0,7.1-0.3,12.9-0.3c9.4,0,26.8-0.9,38.1,10.8c4.8,4.9,9.2,12.9,9.2,24.1c0.1,9.9-3.6,19.5-10.3,26.8
	c-4.1,4.3-12.6,10.9-28.8,10.9c-4.1,0-9.1-0.3-13.2-0.6c-4.1-0.3-7.4-0.6-7.9-0.6c-0.2,0-1.8,0-3.8,0.1c-2,0.1-4.1,0.2-5.5,0.2
	c-1,0-1.5-0.2-1.5-0.8c0-0.3,0.2-0.6,1-0.6c0.9-0.1,1.8-0.2,2.7-0.4c1.9-0.4,2.4-2.5,2.8-5.2c0.5-4,0.5-11.5,0.5-20.6L414.5,262.9z
	 M422.5,273.2c0,10.1,0.1,18.9,0.2,20.6c0.1,2.4,0.3,6.2,1,7.2c1.2,1.8,4.9,3.8,16.2,3.8c8.8,0,17-3.2,22.6-8.8
	c4.9-4.8,7.6-14,7.6-22.7c0-12.1-5.2-19.9-9.1-23.9c-8.9-9.4-19.8-10.7-31.1-10.7c-1.9,0-5.4,0.3-6.2,0.7c-0.8,0.3-1.3,1.1-1.1,1.9
	c-0.1,3.2-0.1,12.9-0.1,20.2L422.5,273.2z M500.2,262.9c0-14.8,0-17.5-0.2-20.5c-0.2-3.2-1-4.8-4.1-5.4c-0.9-0.2-1.8-0.3-2.8-0.3
	c-0.7-0.1-1.2-0.2-1.2-0.6c0-0.6,0.5-0.8,1.5-0.8c2.2,0,4.7,0,10.7,0.3c0.7,0,19.6,0,21.8-0.1c1.5,0,2.9-0.2,4.4-0.6
	c0.3-0.2,0.7-0.3,1-0.4c0.3,0,0.4,0.4,0.4,0.9c-0.3,1.5-0.6,3-0.8,4.5c-0.1,1.4-0.2,3.2-0.4,5.7c-0.1,0.9-0.4,1.6-0.8,1.6
	c-0.6,0-0.8-0.5-0.8-1.2c0-1.1-0.1-2.1-0.5-3.1c-0.7-2.2-2.7-3.1-6.9-3.5c-1.6-0.2-12-0.3-13-0.3c-0.4,0-0.6,0.3-0.6,1v26.2
	c0,0.7,0.1,1,0.6,1c1.2,0,12.9,0,15.1-0.2c2.6-0.2,3.8-0.5,4.8-1.6c0.5-0.6,0.8-1,1.1-1s0.5,0.2,0.5,0.8c0,0.6-0.5,2.2-0.8,5.3
	c-0.3,2.9-0.3,5.1-0.4,6.5c-0.1,1-0.3,1.4-0.7,1.4c-0.6,0-0.7-0.8-0.7-1.5c0-0.9-0.1-1.8-0.4-2.7c-0.4-1.4-1.5-2.8-4.9-3.1
	c-2.6-0.3-12-0.5-13.6-0.5c-0.3,0-0.6,0.2-0.7,0.5c0,0,0,0.1,0,0.1v8.4c0,3.2-0.1,14.3,0,16.3c0.2,3.9,0.8,6,3.1,6.9
	c1.6,0.7,4.2,0.9,7.9,0.9c2.9,0.1,5.8-0.2,8.6-0.9c3-1,4.1-2.9,4.8-7c0.2-1,0.4-1.4,0.9-1.4s0.6,0.8,0.6,1.4
	c-0.3,3.1-0.7,6.2-1.3,9.2c-0.7,2.5-1.4,2.5-5.1,2.5c-7,0-10.2-0.2-13.9-0.3c-3.7-0.1-8.2-0.3-11.9-0.3c-2.3,0-4.6,0.4-7,0.3
	c-1,0-1.5-0.2-1.5-0.8c0-0.3,0.5-0.5,1-0.6c0.7,0,1.5-0.1,2.2-0.3c2-0.5,3.2-1.8,3.4-8.9c0.1-3.7,0.2-8.6,0.2-17L500.2,262.9z
	 M555,279.1c0-34.3,0.2-22,0.1-40.4c0-3.7,0.3-4.7,1-4.7c0.8,0,2.4,2.1,3.3,3c1.4,1.6,15.6,16.9,30.2,32.6
	c9.4,10.1,19.8,21.7,22.8,24.8l-1-48.3c-0.1-6.2-0.8-8.3-3.7-9c-1.3-0.3-2.7-0.5-4.1-0.5c-1,0-1.3-0.3-1.3-0.7
	c0-0.6,0.8-0.7,1.9-0.7c4.3,0,8.8,0.3,9.9,0.3s4.2-0.3,8.1-0.3c1,0,1.7,0.1,1.7,0.7c0,0.4-0.4,0.6-1,0.7c-0.7,0.1-1.3,0.2-2.5,0.4
	c-2.7,0.6-3.3,2-3.3,8.6l-0.2,55.5c0,6.3-0.2,6.7-0.9,6.7c-0.7,0-1.9-1-6.9-6.1c-1-1-14.7-14.9-24.8-25.7
	c-11-11.9-21.8-23.9-24.8-27.3l1.2,45.5c0.2,7.8,1.1,10.3,3.7,11c1.6,0.4,3.1,0.6,4.7,0.6c0.5,0,0.8,0.2,0.8,0.6
	c0,0.6-0.6,0.8-1.7,0.8c-5.4,0-9.2-0.3-10.1-0.3s-4.8,0.3-9.1,0.3c-0.9,0-1.5-0.1-1.5-0.8c0-0.4,0.3-0.6,0.8-0.6
	c1.3,0,2.6-0.2,3.9-0.6c2.4-0.7,2.9-3.4,2.9-12.1L555,279.1z M198.5,334.1c0-8.7,0-10.2-0.1-12c-0.1-1.8-0.7-2.8-1.9-3.1
	c-0.6-0.1-1.1-0.2-1.7-0.2c-0.2,0-0.4-0.1-0.4-0.3s0.3-0.4,0.9-0.4c1.8,0,5.3,0.2,5.6,0.2s3.8-0.2,5.5-0.2c0.6,0,0.9,0.1,0.9,0.4
	s-0.2,0.3-0.4,0.3c-0.5,0-0.9,0.1-1.4,0.2c-1.5,0.3-2,1.2-2.1,3.2c-0.1,1.8-0.1,3.3-0.1,12v9.8c0,5.3,0,9.7,0.3,12.1
	c0.2,1.6,0.5,2.8,2.2,3.1c0.8,0.1,1.9,0.2,2.3,0.2c0.5,0,0.7,0.2,0.7,0.3s-0.2,0.4-0.9,0.4c-3.1,0-6.6-0.2-6.9-0.2s-3.8,0.2-5.5,0.2
	c-0.6,0-0.9-0.1-0.9-0.4c0-0.2,0.1-0.3,0.6-0.3c0.5,0,1-0.1,1.4-0.2c1.1-0.2,1.4-1.5,1.7-3.1c0.3-2.3,0.3-6.7,0.3-12.1L198.5,334.1z
	 M230.7,343.6c0-20.1,0.1-12.9,0.1-23.7c0-2.2,0.2-2.8,0.6-2.8s1.4,1.2,1.9,1.8c0.9,0.9,9.1,9.9,17.7,19.1
	c5.5,5.9,11.6,12.7,13.4,14.5l-0.6-28.3c-0.1-3.6-0.4-4.8-2.2-5.3c-0.8-0.2-1.6-0.3-2.4-0.3c-0.6,0-0.8-0.2-0.8-0.4
	c0-0.2,0.4-0.4,1.1-0.4c2.5,0,5.1,0.2,5.8,0.2c0.7,0,2.4-0.2,4.7-0.2c0.6,0,1,0.1,1,0.4c0,0.3-0.2,0.3-0.6,0.4
	c-0.4,0.1-0.8,0.1-1.4,0.2c-1.6,0.3-1.9,1.2-1.9,5l-0.1,32.5c0,3.7-0.1,4-0.5,4c-0.4,0-1.1-0.6-4.1-3.6c-0.6-0.6-8.6-8.7-14.5-15.1
	c-6.5-7-12.7-14-14.5-16l0.7,26.7c0.1,4.6,0.7,6,2.2,6.5c0.9,0.2,1.8,0.3,2.8,0.3c0.3,0,0.4,0.1,0.4,0.3s-0.3,0.4-1,0.4
	c-3.2,0-5.4-0.2-5.9-0.2c-0.5,0-2.8,0.2-5.3,0.2c-0.6,0-0.9-0.1-0.9-0.4c0-0.2,0.2-0.3,0.4-0.3c0.8,0,1.5-0.1,2.3-0.3
	c1.4-0.4,1.7-2,1.7-7.1L230.7,343.6z M290.3,359.3c-0.8-0.4-0.9-0.6-0.9-2.1c0-2.8,0.2-5,0.3-5.9c0.1-0.6,0.2-0.9,0.4-0.9
	c0.3,0,0.4,0.2,0.4,0.6c0,0.7,0,1.4,0.2,2.1c0.9,4.1,4.5,5.7,8.2,5.7c5.3,0,8-3.8,8-7.4c0-3.8-1.6-6.1-6.4-10l-2.5-2.1
	c-5.9-4.8-7.2-8.3-7.2-12.1c0-6,4.5-10,11.5-10c1.7,0,3.5,0.2,5.1,0.6c0.6,0.2,1.3,0.3,1.9,0.3c0.4,0,0.6,0.1,0.6,0.4
	s-0.2,2.1-0.2,5.9c0,0.9-0.1,1.3-0.4,1.3s-0.4-0.3-0.4-0.7c-0.1-1-0.3-1.9-0.7-2.8c-0.3-0.6-1.8-2.9-7-2.9c-3.8,0-6.9,2.4-6.9,6.5
	c0,3.2,1.4,5.1,6.8,9.4l1.6,1.2c6.6,5.1,8.1,8.6,8.1,13.1c0,3.7-1.8,7.1-4.7,9.2c-2.5,1.6-5.4,2.4-8.4,2.3
	C295.2,360.9,292.7,360.3,290.3,359.3z M336.8,341.9c0,8,1.8,11.5,4.2,13.8c2.7,2.6,5.2,3.1,8.4,3.1c3.4,0,6.5-1.5,8.7-4
	c2.6-3.2,3.2-7.9,3.2-13.6v-7c0-8.7,0-10.2-0.1-12c-0.1-1.8-0.6-2.8-2.4-3.2c-0.6-0.1-1.3-0.2-1.9-0.2c-0.2,0-0.4-0.1-0.4-0.3
	s0.3-0.4,0.9-0.4c2.5,0,5.6,0.2,5.9,0.2c0.3,0,3-0.2,4.7-0.2c0.6,0,0.9,0.1,0.9,0.4s-0.2,0.3-0.4,0.3c-0.5,0-0.9,0.1-1.4,0.2
	c-1.5,0.3-1.9,1.2-2.1,3.2c-0.1,1.8-0.1,3.3-0.1,12v6c0,6-0.7,12.7-5.1,16.6c-3.1,2.8-7.2,4.2-11.4,4.1c-1.9,0-7.5-0.2-11.5-4
	c-2.7-2.6-4.8-6.5-4.8-14.6v-8.1c0-8.7,0-10.2-0.1-12c-0.1-1.8-0.6-2.8-2.4-3.2c-0.6-0.1-1.3-0.2-1.9-0.2c-0.2,0-0.4-0.1-0.4-0.3
	s0.3-0.4,0.9-0.4c2.5,0,5.9,0.2,6.4,0.2s3.8-0.2,5.5-0.2c0.6,0,0.9,0.1,0.9,0.4s-0.2,0.3-0.4,0.3c-0.5,0-0.9,0.1-1.4,0.2
	c-1.5,0.2-1.9,1.2-2.1,3.2c-0.1,1.8-0.1,3.3-0.1,12L336.8,341.9z M391,334.1c0-8.7,0-10.2-0.1-12c-0.1-1.8-0.6-2.8-2.4-3.2
	c-0.6-0.1-1.3-0.2-1.9-0.2c-0.2,0-0.4-0.1-0.4-0.3s0.3-0.4,0.9-0.4c2.5,0,6,0.2,6.3,0.2c0.6,0,4.8-0.2,6.6-0.2
	c3.5,0,7.2,0.3,10.2,2.4c2.4,1.8,3.8,4.6,3.8,7.6c0,4.1-1.7,8.2-6.7,12.9c4.6,5.8,8.3,10.8,11.6,14.3c3,3.2,5.4,3.8,6.8,4
	c0.7,0.1,1.4,0.2,2.2,0.2c0.3,0,0.5,0.2,0.5,0.3c0,0.3-0.3,0.4-1.3,0.4h-4c-3.1,0-4.5-0.3-6-1.1c-2.4-1.3-4.3-4-7.5-8.2
	c-2.3-3.1-5-6.8-6.1-8.2c-0.2-0.2-0.4-0.3-0.7-0.3l-6.9-0.1c-0.3,0-0.4,0.2-0.4,0.4v1.3c0,5.3,0,9.7,0.3,12.1
	c0.2,1.6,0.5,2.8,2.2,3.1c0.8,0.1,1.7,0.2,2.5,0.2c0.3,0,0.4,0.2,0.4,0.3s-0.3,0.4-0.9,0.4c-3.1,0-6.6-0.2-6.9-0.2
	c-0.1,0-3.6,0.2-5.2,0.2c-0.6,0-0.9-0.1-0.9-0.4c0-0.2,0.1-0.3,0.4-0.3c0.6,0,1.1-0.1,1.7-0.2c1.1-0.2,1.4-1.4,1.6-3.1
	c0.3-2.3,0.3-6.7,0.3-12.1L391,334.1z M395.4,338.9c0,0.3,0.1,0.5,0.4,0.7c0.9,0.5,3.4,0.9,5.8,0.9c1.5,0.1,2.9-0.3,4.2-1.1
	c1.9-1.3,3.4-4.3,3.4-8.6c0-7-3.7-11.1-9.6-11.1c-1.3,0-2.5,0.1-3.7,0.3c-0.3,0.1-0.5,0.4-0.4,0.7L395.4,338.9z M446.2,343.6
	c-0.3,0-0.5,0.2-0.6,0.4l-3.3,9.8c-0.5,1.2-0.7,2.5-0.8,3.7c0,1.1,1.1,1.6,2,1.6h0.5c0.6,0,0.7,0.1,0.7,0.3c0,0.2-0.5,0.4-1,0.4
	c-1.3,0-3.6-0.2-4.2-0.2s-3.7,0.2-6.3,0.2c-0.7,0-1.1-0.1-1.1-0.4s0.3-0.3,0.8-0.3c0.4,0,0.9-0.1,1.3-0.1c2.6-0.3,3.7-2.5,4.7-5.2
	l12.6-34.6c0.7-1.8,0.9-2.2,1.2-2.2c0.4,0,0.6,0.3,1.2,2c0.9,2.1,9.6,25.1,13,33.6c2,5,3.6,5.8,4.8,6.2c0.7,0.2,1.4,0.3,2.2,0.3
	c0.3,0,0.6,0.1,0.6,0.3c0,0.3-0.5,0.4-1.1,0.4c-0.9,0-4.9,0-8.7-0.1c-1.1-0.1-1.7-0.1-1.7-0.4s0.2-0.3,0.4-0.4
	c0.2-0.1,0.7-0.6,0.3-1.5l-5.1-13.7c-0.1-0.2-0.3-0.3-0.5-0.3L446.2,343.6z M457.4,341.6c0.3,0,0.3-0.2,0.2-0.4l-5.3-15
	c-0.3-0.9-0.6-0.9-0.9,0l-4.9,15c-0.1,0.3,0,0.4,0.2,0.4H457.4z M489.8,343.6c0-20.1,0.1-12.9,0.1-23.7c0-2.2,0.2-2.8,0.6-2.8
	c0.4,0,1.4,1.2,1.9,1.8c0.9,0.9,9.1,9.9,17.7,19.1c5.5,5.9,11.6,12.7,13.4,14.5l-0.6-28.3c-0.1-3.6-0.4-4.8-2.2-5.3
	c-0.8-0.2-1.6-0.3-2.4-0.3c-0.6,0-0.8-0.2-0.8-0.4c0-0.2,0.4-0.4,1.1-0.4c2.5,0,5.1,0.2,5.8,0.2c0.7,0,2.4-0.2,4.7-0.2
	c0.6,0,1,0.1,1,0.4c0,0.3-0.2,0.3-0.6,0.4c-0.4,0.1-0.8,0.1-1.4,0.2c-1.6,0.3-1.9,1.2-1.9,5l-0.1,32.5c0,3.7-0.1,4-0.5,4
	s-1.1-0.6-4.1-3.6c-0.6-0.6-8.6-8.7-14.6-15.1c-6.5-7-12.7-14-14.6-16l0.7,26.7c0.1,4.6,0.7,6,2.2,6.5c0.9,0.2,1.8,0.3,2.8,0.3
	c0.3,0,0.4,0.1,0.4,0.3s-0.3,0.4-1,0.4c-3.2,0-5.4-0.2-5.9-0.2c-0.5,0-2.8,0.2-5.3,0.2c-0.6,0-0.9-0.1-0.9-0.4
	c0-0.2,0.2-0.3,0.4-0.3c0.8,0,1.5-0.1,2.3-0.3c1.4-0.4,1.7-2,1.7-7.1L489.8,343.6z M554.3,354.8c-5.4-4.8-6.7-11.2-6.7-16.5
	c0.1-5.7,2.3-11.1,6.2-15.2c3.3-3.3,8.4-6,17-6c2.7,0,5.4,0.2,8.1,0.7c2.1,0.4,3.8,0.6,5.9,0.9c0.3,0,0.5,0.3,0.5,0.6c0,0,0,0,0,0.1
	c0,0.4-0.2,1.1-0.3,3.1c-0.1,1.8-0.1,4.9-0.2,5.7c-0.1,0.8-0.2,1.2-0.5,1.2c-0.3,0-0.4-0.4-0.4-1.2c0-2.1-0.8-4.2-2.3-5.7
	c-1.9-1.7-6.2-3.2-11.1-3.2c-7.4,0-10.9,2.2-12.8,4.1c-4.1,3.9-5,8.8-5,14.5c0,10.6,8.2,20.4,20.1,20.4c4.2,0,7.5-0.5,9.7-2.8
	c1.1-1.4,1.8-3,2.1-4.7c0.1-0.6,0.2-0.9,0.6-0.9c0.3,0,0.4,0.4,0.4,0.9c-0.3,2.4-0.7,4.8-1.2,7.1c-0.3,1.1-0.4,1.2-1.4,1.6
	c-2.2,0.9-6.5,1.3-10,1.3C564.3,360.8,558.7,358.7,554.3,354.8z M607.2,334.1c0-8.7,0-10.2-0.1-12c-0.1-1.8-0.6-2.8-2.4-3.2
	c-0.5-0.1-1.1-0.1-1.6-0.2c-0.4-0.1-0.7-0.1-0.7-0.3s0.3-0.4,0.9-0.4c1.3,0,2.8,0,6.3,0.2c0.4,0,11.5,0,12.7-0.1
	c0.9,0,1.7-0.1,2.6-0.3c0.2-0.1,0.4-0.2,0.6-0.2c0.2,0,0.2,0.2,0.2,0.5c-0.2,0.9-0.3,1.7-0.4,2.6c-0.1,0.9-0.1,1.9-0.2,3.3
	c-0.1,0.6-0.2,1-0.4,1s-0.4-0.3-0.4-0.7c0-0.6-0.1-1.2-0.3-1.8c-0.4-1.3-1.6-1.8-4-2.1c-0.9-0.1-7-0.2-7.6-0.2
	c-0.2,0-0.3,0.2-0.3,0.6V336c0,0.4,0.1,0.6,0.3,0.6c0.7,0,7.6,0,8.8-0.1c1.5-0.1,2.2-0.3,2.8-0.9c0.3-0.3,0.4-0.6,0.7-0.6
	c0.2,0,0.3,0.1,0.3,0.4s-0.3,1.3-0.4,3.1s-0.2,3-0.2,3.8c-0.1,0.6-0.2,0.9-0.4,0.9c-0.2,0-0.4-0.4-0.4-0.9c0-0.5-0.1-1.1-0.2-1.6
	c-0.2-0.9-0.9-1.6-2.9-1.8c-1.5-0.2-7-0.3-8-0.3c-0.2,0-0.4,0.1-0.4,0.3c0,0,0,0.1,0,0.1v4.9c0,1.9-0.1,8.3,0,9.5
	c0.1,2.3,0.4,3.5,1.8,4.1c1.5,0.4,3.1,0.6,4.6,0.5c1.7,0.1,3.4-0.1,5-0.5c1.8-0.6,2.4-1.7,2.8-4.1c0.1-0.6,0.2-0.9,0.5-0.9
	c0.3,0,0.3,0.4,0.3,0.9c0,0.4-0.4,4.2-0.7,5.4c-0.4,1.4-0.9,1.4-3,1.4c-4.1,0-6-0.1-8.1-0.2c-2.1-0.1-4.8-0.2-7-0.2
	c-1.3,0-2.7,0.2-4.1,0.2c-0.6,0-0.9-0.1-0.9-0.4c0-0.2,0.3-0.3,0.6-0.3c0.4,0,0.9-0.1,1.3-0.2c1.2-0.3,1.9-1.1,2-5.2
	c0.1-2.2,0.1-5,0.1-10L607.2,334.1z M198.5,387c0-8.7,0-10.2-0.1-12c-0.1-1.8-0.6-2.8-2.4-3.2c-0.6-0.1-1.3-0.2-1.9-0.2
	c-0.2,0-0.4-0.1-0.4-0.3s0.3-0.4,0.9-0.4c2.5,0,5.8,0.2,6.3,0.2c1.2,0,4.5-0.2,7-0.2c7,0,9.4,2.3,10.4,3.2c1.9,2,2.9,4.6,2.8,7.3
	c0,7.2-5.8,12.6-13.7,12.6c-0.4,0-0.8,0-1.2-0.1c-0.3,0-0.6-0.1-0.6-0.4c0-0.4,0.3-0.5,1.5-0.5c5.4,0,9.6-3.7,9.6-9.5
	c0.1-3-1.1-5.9-3.1-8.1c-2-2-4.8-3-7.6-2.8c-0.8,0-1.6,0.1-2.4,0.3c-0.3,0.1-0.4,0.5-0.4,1.1v22.9c0,5.3,0,9.7,0.3,12.1
	c0.2,1.6,0.5,2.8,2.2,3.1c0.8,0.1,1.7,0.2,2.5,0.2c0.3,0,0.4,0.2,0.4,0.3s-0.3,0.4-0.9,0.4c-3.1,0-6.6-0.2-6.9-0.2s-3.7,0.2-5.3,0.2
	c-0.6,0-0.9-0.1-0.9-0.4c0-0.2,0.1-0.3,0.4-0.3c0.6,0,1.2-0.1,1.7-0.2c1.1-0.2,1.4-1.4,1.6-3.1c0.3-2.3,0.3-6.7,0.3-12.1L198.5,387z
	 M232.4,396.5c-0.3,0-0.5,0.2-0.6,0.4l-3.3,9.9c-0.5,1.2-0.7,2.5-0.8,3.7c0,1.1,1.1,1.6,2,1.6h0.5c0.6,0,0.7,0.1,0.7,0.3
	s-0.5,0.4-1,0.4c-1.3,0-3.6-0.2-4.2-0.2c-0.6,0-3.7,0.2-6.3,0.2c-0.7,0-1.1-0.1-1.1-0.4s0.3-0.3,0.8-0.3c0.4,0,0.9,0,1.3-0.1
	c2.6-0.3,3.7-2.4,4.7-5.2l12.6-34.6c0.7-1.8,0.9-2.2,1.2-2.2s0.6,0.3,1.2,2c0.9,2.1,9.6,25.1,13,33.6c2,5,3.6,5.8,4.8,6.2
	c0.7,0.2,1.4,0.3,2.2,0.3c0.3,0,0.6,0.1,0.6,0.3c0,0.3-0.5,0.4-1.1,0.4c-0.9,0-4.9,0-8.7-0.1c-1.1-0.1-1.7-0.1-1.7-0.4
	s0.2-0.3,0.4-0.4c0.2-0.1,0.7-0.6,0.3-1.5l-5.1-13.7c-0.1-0.2-0.3-0.4-0.5-0.3L232.4,396.5z M243.6,394.5c0.3,0,0.3-0.2,0.2-0.4
	l-5.3-15c-0.3-0.9-0.6-0.9-0.9,0l-4.9,15c-0.1,0.3,0,0.4,0.2,0.4L243.6,394.5z M267.8,387c0-8.7,0-10.2-0.1-12
	c-0.1-1.8-0.6-2.8-2.4-3.2c-0.6-0.1-1.3-0.2-1.9-0.2c-0.2,0-0.4-0.1-0.4-0.3s0.3-0.4,0.9-0.4c2.5,0,6,0.2,6.3,0.2
	c0.6,0,4.8-0.2,6.6-0.2c3.5,0,7.2,0.3,10.2,2.5c2.4,1.8,3.8,4.6,3.8,7.6c0,4.1-1.7,8.2-6.7,12.9c4.6,5.8,8.3,10.8,11.6,14.2
	c3,3.2,5.4,3.8,6.8,4c0.7,0.1,1.4,0.2,2.2,0.2c0.3,0,0.5,0.2,0.5,0.3c0,0.3-0.3,0.4-1.3,0.4h-4c-3.1,0-4.5-0.3-6-1.1
	c-2.4-1.3-4.3-4-7.5-8.2c-2.3-3.1-5-6.8-6.1-8.2c-0.2-0.2-0.4-0.3-0.7-0.3l-6.9-0.1c-0.3,0-0.4,0.2-0.4,0.4v1.3
	c0,5.3,0,9.7,0.3,12.1c0.2,1.6,0.5,2.8,2.2,3.1c0.8,0.1,1.7,0.2,2.5,0.2c0.3,0,0.4,0.2,0.4,0.3s-0.3,0.4-0.9,0.4
	c-3.1,0-6.6-0.2-6.9-0.2c-0.1,0-3.6,0.2-5.2,0.2c-0.6,0-0.9-0.1-0.9-0.4c0-0.2,0.1-0.3,0.4-0.3c0.6,0,1.2-0.1,1.7-0.2
	c1.1-0.2,1.4-1.4,1.6-3.1c0.3-2.3,0.3-6.7,0.3-12.1L267.8,387z M272.3,391.9c0,0.3,0.1,0.5,0.4,0.7c0.9,0.5,3.4,0.9,5.8,0.9
	c1.5,0.1,2.9-0.3,4.2-1.1c1.9-1.3,3.4-4.3,3.4-8.6c0-7-3.7-11.1-9.6-11.1c-1.3,0-2.5,0.1-3.7,0.3c-0.3,0.1-0.5,0.4-0.4,0.7
	L272.3,391.9z M317.4,396.8c0,5.3,0,9.7,0.3,12.1c0.2,1.6,0.5,2.8,2.2,3.1c0.8,0.1,1.7,0.2,2.5,0.2c0.3,0,0.4,0.2,0.4,0.3
	s-0.3,0.4-0.9,0.4c-3.1,0-6.6-0.2-6.9-0.2s-3.8,0.2-5.5,0.2c-0.6,0-0.9-0.1-0.9-0.4c0-0.2,0.1-0.3,0.4-0.3c0.6,0,1.1-0.1,1.7-0.2
	c1.1-0.2,1.4-1.4,1.6-3.1c0.3-2.3,0.3-6.7,0.3-12.1v-23.5c-2.7,0.1-5.5,0.1-8.2,0.1c-3.4,0.1-4.8,0.4-5.7,1.8
	c-0.4,0.5-0.7,1.1-0.9,1.7c-0.2,0.4-0.3,0.6-0.6,0.6s-0.3-0.2-0.3-0.5c0-0.6,1.1-5.3,1.2-5.8c0.1-0.4,0.3-1.1,0.6-1.1
	c0.8,0.3,1.6,0.5,2.5,0.7c1.6,0.2,3.7,0.3,4.4,0.3h20.9c1.3,0,2.7-0.1,4-0.3c0.9-0.1,1.3-0.3,1.6-0.3s0.3,0.3,0.3,0.7
	c0,1.7-0.2,5.5-0.2,6.1s-0.2,0.7-0.4,0.7c-0.2,0-0.4-0.2-0.4-1c0-0.2-0.1-0.4-0.1-0.6c-0.2-1.7-1.5-2.9-6.9-3.1
	c-2.3-0.1-4.7-0.1-7-0.1L317.4,396.8z M341.2,396.5c0-20.1,0.1-12.9,0.1-23.7c0-2.2,0.2-2.8,0.6-2.8c0.4,0,1.4,1.2,1.9,1.8
	c0.9,1,9.1,9.9,17.7,19.1c5.5,5.9,11.6,12.7,13.4,14.5l-0.6-28.3c-0.1-3.6-0.4-4.8-2.2-5.3c-0.8-0.2-1.6-0.3-2.4-0.3
	c-0.6,0-0.8-0.2-0.8-0.4s0.4-0.4,1.1-0.4c2.5,0,5.1,0.2,5.8,0.2c0.7,0,2.4-0.2,4.7-0.2c0.6,0,1,0.1,1,0.4s-0.2,0.3-0.6,0.4l-1.4,0.2
	c-1.6,0.3-1.9,1.2-1.9,5l-0.1,32.5c0,3.7-0.1,4-0.5,4c-0.4,0-1.1-0.6-4.1-3.6c-0.6-0.6-8.6-8.7-14.6-15.1c-6.5-7-12.7-14-14.5-16
	l0.7,26.7c0.1,4.6,0.7,6,2.2,6.5c0.9,0.2,1.8,0.3,2.8,0.3c0.3,0,0.4,0.1,0.4,0.3s-0.3,0.4-1,0.4c-3.2,0-5.4-0.2-5.9-0.2
	c-0.5,0-2.8,0.2-5.3,0.2c-0.6,0-0.9-0.1-0.9-0.4c0-0.2,0.2-0.3,0.4-0.3c0.8,0,1.5-0.1,2.3-0.3c1.4-0.4,1.7-2,1.7-7.1L341.2,396.5z
	 M394.8,387c0-8.7,0-10.2-0.1-12c-0.1-1.8-0.6-2.8-2.4-3.2c-0.5-0.1-1.1-0.1-1.6-0.2c-0.4-0.1-0.7-0.1-0.7-0.3s0.3-0.4,0.9-0.4
	c1.3,0,2.8,0,6.3,0.2c0.4,0,11.5,0,12.7-0.1c0.9,0,1.7-0.1,2.6-0.3c0.2-0.1,0.4-0.2,0.6-0.2c0.2,0,0.2,0.2,0.2,0.5
	c-0.2,0.8-0.3,1.7-0.4,2.6c-0.1,0.9-0.1,1.9-0.2,3.3c-0.1,0.6-0.2,0.9-0.4,0.9c-0.2,0-0.4-0.3-0.4-0.7c0-0.6-0.1-1.2-0.3-1.8
	c-0.4-1.3-1.6-1.8-4-2.1c-1-0.1-7-0.2-7.6-0.2c-0.2,0-0.3,0.2-0.3,0.6V389c0,0.4,0.1,0.6,0.3,0.6c0.7,0,7.6,0,8.8-0.1
	c1.5-0.1,2.2-0.3,2.8-0.9c0.3-0.3,0.4-0.6,0.7-0.6s0.3,0.1,0.3,0.4s-0.3,1.3-0.4,3.1c-0.2,1.8-0.2,3-0.2,3.8
	c-0.1,0.6-0.2,0.9-0.4,0.9s-0.4-0.4-0.4-0.9c0-0.5-0.1-1-0.2-1.6c-0.2-0.9-0.9-1.6-2.9-1.8c-1.5-0.2-7-0.3-8-0.3
	c-0.2,0-0.4,0.1-0.4,0.3c0,0,0,0,0,0.1v4.9c0,1.9-0.1,8.3,0,9.5c0.1,2.3,0.4,3.5,1.8,4.1c1.5,0.4,3.1,0.6,4.6,0.5
	c1.7,0.1,3.4-0.1,5-0.5c1.8-0.6,2.4-1.7,2.8-4.1c0.1-0.6,0.2-0.9,0.5-0.9c0.3,0,0.3,0.4,0.3,0.9c0,0.4-0.4,4.2-0.7,5.4
	c-0.4,1.4-0.9,1.4-3,1.4c-4.1,0-6-0.1-8.1-0.2c-2.2-0.1-4.8-0.2-7-0.2c-1.3,0-2.7,0.2-4.1,0.2c-0.6,0-0.9-0.1-0.9-0.4
	c0-0.2,0.3-0.3,0.6-0.3c0.4,0,0.9-0.1,1.3-0.2c1.2-0.3,1.9-1.1,2-5.2c0.1-2.2,0.1-5,0.1-10L394.8,387z M426.6,387
	c0-8.7,0-10.2-0.1-12s-0.6-2.8-2.4-3.2c-0.6-0.1-1.3-0.2-1.9-0.2c-0.2,0-0.4-0.1-0.4-0.3s0.3-0.4,0.9-0.4c2.5,0,6,0.2,6.3,0.2
	c0.6,0,4.9-0.2,6.6-0.2c3.5,0,7.2,0.3,10.2,2.5c2.4,1.8,3.8,4.6,3.8,7.6c0,4.1-1.7,8.2-6.7,12.9c4.6,5.8,8.3,10.8,11.6,14.2
	c3,3.2,5.4,3.8,6.8,4c0.7,0.1,1.4,0.2,2.2,0.2c0.3,0,0.5,0.2,0.5,0.3c0,0.3-0.3,0.4-1.3,0.4h-4c-3.1,0-4.5-0.3-6-1.1
	c-2.4-1.3-4.3-4-7.5-8.2c-2.3-3.1-5-6.8-6.1-8.2c-0.2-0.2-0.4-0.3-0.7-0.3l-6.9-0.1c-0.3,0-0.4,0.2-0.4,0.4v1.3
	c0,5.3,0,9.7,0.3,12.1c0.2,1.6,0.5,2.8,2.2,3.1c0.8,0.1,1.7,0.2,2.5,0.2c0.3,0,0.4,0.2,0.4,0.3s-0.3,0.4-0.9,0.4
	c-3.1,0-6.6-0.2-6.9-0.2c-0.1,0-3.6,0.2-5.2,0.2c-0.6,0-0.9-0.1-0.9-0.4c0-0.2,0.1-0.3,0.4-0.3c0.6,0,1.2-0.1,1.7-0.2
	c1.1-0.2,1.4-1.4,1.6-3.1c0.3-2.3,0.3-6.7,0.3-12.1L426.6,387z M431.1,391.9c0,0.3,0.1,0.5,0.4,0.7c0.9,0.5,3.4,0.9,5.8,0.9
	c1.5,0.1,2.9-0.3,4.2-1.1c1.9-1.3,3.4-4.3,3.4-8.6c0-7-3.7-11.1-9.6-11.1c-1.3,0-2.5,0.1-3.7,0.3c-0.3,0.1-0.5,0.4-0.4,0.7
	L431.1,391.9z M465.3,412.2c-0.8-0.4-0.9-0.6-0.9-2.1c0-2.8,0.2-5,0.3-5.9c0.1-0.6,0.2-0.9,0.4-0.9c0.3,0,0.4,0.2,0.4,0.6
	c0,0.7,0,1.4,0.2,2.1c0.9,4.1,4.5,5.7,8.2,5.7c5.3,0,8-3.8,8-7.4c0-3.8-1.6-6.1-6.4-10l-2.5-2.1c-5.9-4.8-7.2-8.3-7.2-12.1
	c0-5.9,4.4-10,11.5-10c1.7,0,3.5,0.2,5.1,0.6c0.6,0.2,1.3,0.3,2,0.3c0.4,0,0.6,0.1,0.6,0.4c0,0.3-0.2,2.1-0.2,5.9
	c0,0.9-0.1,1.3-0.4,1.3c-0.3,0-0.4-0.3-0.4-0.7c-0.1-1-0.3-1.9-0.7-2.8c-0.3-0.6-1.8-2.9-7-2.9c-3.8,0-6.9,2.4-6.9,6.5
	c0,3.2,1.4,5.1,6.8,9.4l1.6,1.2c6.6,5.1,8.1,8.6,8.1,13.1c0,3.7-1.8,7.1-4.7,9.2c-2.5,1.6-5.4,2.4-8.4,2.3
	C470.1,413.8,467.6,413.3,465.3,412.2z M527.3,388.5c0.2,0,0.3-0.1,0.3-0.3V387c0-8.7,0-10.2-0.1-12c-0.1-1.8-0.5-2.8-2.4-3.2
	c-0.6-0.1-1.3-0.2-1.9-0.2c-0.2,0-0.4-0.1-0.4-0.3s0.3-0.4,0.9-0.4c2.5,0,6,0.2,6.3,0.2c0.3,0,3.8-0.2,5.5-0.2
	c0.6,0,0.9,0.1,0.9,0.4s-0.2,0.3-0.4,0.3c-0.5,0-0.9,0.1-1.4,0.2c-1.5,0.3-1.9,1.2-2.1,3.2c-0.1,1.8-0.1,3.3-0.1,12v9.8
	c0,5.3,0,9.7,0.3,12.1c0.2,1.6,0.5,2.8,2.2,3.1c0.8,0.1,1.7,0.2,2.5,0.2c0.3,0,0.4,0.2,0.4,0.3s-0.3,0.4-0.9,0.4
	c-3.1,0-6.6-0.2-6.9-0.2c-0.3,0-3.8,0.2-5.5,0.2c-0.6,0-0.9-0.1-0.9-0.4c0-0.2,0.1-0.3,0.4-0.3c0.6,0,1.2-0.1,1.7-0.2
	c1.1-0.2,1.4-1.4,1.6-3.1c0.3-2.3,0.3-6.7,0.3-12.1V391c0-0.2-0.1-0.3-0.3-0.3c0,0,0,0,0,0h-23.6c-0.2,0-0.3,0.1-0.3,0.3v5.8
	c0,5.3,0,9.7,0.3,12.1c0.2,1.6,0.5,2.8,2.2,3.1c0.8,0.1,1.7,0.2,2.5,0.2c0.3,0,0.4,0.2,0.4,0.3s-0.3,0.4-0.9,0.4
	c-3.1,0-6.6-0.2-6.9-0.2s-3.8,0.2-5.5,0.2c-0.6,0-0.9-0.1-0.9-0.4c0-0.2,0.1-0.3,0.4-0.3c0.6,0,1.1-0.1,1.7-0.2
	c1.1-0.2,1.4-1.4,1.6-3.1c0.3-2.3,0.3-6.7,0.3-12.1V387c0-8.7,0-10.2-0.1-12c-0.1-1.8-0.6-2.8-2.4-3.2c-0.6-0.1-1.3-0.2-1.9-0.2
	c-0.2,0-0.4-0.1-0.4-0.3s0.3-0.4,0.9-0.4c2.5,0,6,0.2,6.3,0.2c0.3,0,3.8-0.2,5.5-0.2c0.6,0,0.9,0.1,0.9,0.4s-0.2,0.3-0.4,0.3
	c-0.5,0-0.9,0.1-1.4,0.2c-1.5,0.3-1.9,1.2-2.1,3.2c-0.1,1.8-0.1,3.3-0.1,12v1.1c0,0.3,0.2,0.3,0.3,0.3L527.3,388.5z M551.1,387
	c0-8.7,0-10.2-0.1-12c-0.1-1.8-0.7-2.8-1.9-3.1c-0.6-0.1-1.1-0.2-1.7-0.2c-0.2,0-0.4-0.1-0.4-0.3s0.3-0.4,0.9-0.4
	c1.8,0,5.3,0.2,5.6,0.2c0.3,0,3.8-0.2,5.5-0.2c0.6,0,0.9,0.1,0.9,0.4s-0.2,0.3-0.4,0.3c-0.5,0-0.9,0.1-1.4,0.2
	c-1.5,0.3-2,1.2-2.1,3.2c-0.1,1.8-0.1,3.3-0.1,12v9.8c0,5.3,0,9.7,0.3,12.1c0.2,1.6,0.5,2.8,2.2,3.1c0.8,0.1,1.9,0.2,2.3,0.2
	c0.5,0,0.7,0.2,0.7,0.3s-0.2,0.4-0.9,0.4c-3.1,0-6.6-0.2-6.9-0.2s-3.8,0.2-5.5,0.2c-0.6,0-0.9-0.1-0.9-0.4c0-0.2,0.1-0.3,0.6-0.3
	c0.5,0,1-0.1,1.4-0.2c1.1-0.2,1.4-1.5,1.7-3.1c0.3-2.3,0.3-6.7,0.3-12.1L551.1,387z M574.6,387c0-8.7,0-10.2-0.1-12
	c-0.1-1.8-0.6-2.8-2.4-3.2c-0.6-0.1-1.3-0.2-1.9-0.2c-0.2,0-0.4-0.1-0.4-0.3s0.3-0.4,0.9-0.4c2.5,0,5.8,0.2,6.3,0.2
	c1.2,0,4.4-0.2,7-0.2c7,0,9.4,2.3,10.4,3.2c1.9,2,2.9,4.6,2.8,7.3c0,7.2-5.8,12.6-13.7,12.6c-0.4,0-0.8,0-1.2-0.1
	c-0.3,0-0.6-0.1-0.6-0.4c0-0.4,0.3-0.5,1.5-0.5c5.4,0,9.6-3.7,9.6-9.5c0.1-3-1.1-5.9-3.1-8.1c-2-2-4.8-3-7.6-2.8
	c-0.8,0-1.6,0.1-2.4,0.3c-0.3,0.1-0.4,0.5-0.4,1.1v22.9c0,5.3,0,9.7,0.3,12.1c0.2,1.6,0.5,2.8,2.2,3.1c0.8,0.1,1.7,0.2,2.5,0.2
	c0.3,0,0.4,0.2,0.4,0.3s-0.3,0.4-0.9,0.4c-3.1,0-6.6-0.2-6.9-0.2c-0.3,0-3.7,0.2-5.3,0.2c-0.6,0-0.9-0.1-0.9-0.4
	c0-0.2,0.1-0.3,0.4-0.3c0.6,0,1.1-0.1,1.7-0.2c1.1-0.2,1.4-1.4,1.6-3.1c0.3-2.3,0.3-6.7,0.3-12.1L574.6,387z M605.9,412.2
	c-0.8-0.4-0.9-0.6-0.9-2.1c0-2.8,0.2-5,0.3-5.9c0.1-0.6,0.2-0.9,0.4-0.9c0.3,0,0.4,0.2,0.4,0.6c0,0.7,0,1.4,0.2,2.1
	c0.9,4.1,4.5,5.7,8.2,5.7c5.3,0,8-3.8,8-7.4c0-3.8-1.6-6.1-6.4-10l-2.5-2.1c-5.9-4.8-7.2-8.3-7.2-12.1c0-5.9,4.4-10,11.5-10
	c1.7,0,3.5,0.2,5.1,0.6c0.6,0.2,1.3,0.3,1.9,0.3c0.4,0,0.6,0.1,0.6,0.4c0,0.3-0.2,2.1-0.2,5.9c0,0.9-0.1,1.3-0.4,1.3
	s-0.4-0.3-0.4-0.7c-0.1-1-0.3-1.9-0.7-2.8c-0.3-0.6-1.8-2.9-7-2.9c-3.8,0-6.9,2.4-6.9,6.5c0,3.2,1.4,5.1,6.8,9.4l1.6,1.2
	c6.6,5.1,8.1,8.6,8.1,13.1c0,3.6-1.8,7.1-4.7,9.2c-2.5,1.6-5.4,2.4-8.4,2.3C610.7,413.8,608.2,413.3,605.9,412.2z M49.3,399.2H63
	c0,0,53.1-50.1,60.9-139.8C124,259.4,80.9,369.4,49.3,399.2z M157.9,234c1.3,6.4,2.8,12.9,3.9,19.4c2.8,15.9,4.4,32,4.6,48.1
	c0.2,16.4-1,32.7-4.6,48.7c-3.4,15.1-8.8,29.5-17.5,42.4c-0.5,0.8-1.1,1.5-2,1.9c-10.8,3.4-22,5.3-33.3,5.7
	c14-23.7,26.2-47.8,27.9-75.7l-0.6-0.2c-0.7,1.7-1.3,3.3-1.9,5c-6.6,16.7-13.4,33.3-22.3,49c-2.4,4.1-5.1,8-8,11.8
	c-0.7,0.8-1.7,1.3-2.7,1.5c-4.7,0.8-9.4,1.3-14.6,2c1.6-3.4,3-6.4,4.4-9.4c17.6-38.9,35.2-77.8,52.7-116.8
	c4.6-10.2,8.5-20.6,12.7-30.9c0.3-0.8,0.5-1.6,0.7-2.5L157.9,234z M141.7,403.6l22.7,6.1c0,0-112.7,8.3-137.4,1.1
	c0,0,32.6-5.7,54.6-5.9S141.7,403.6,141.7,403.6z"/>
</svg>
